<svg xmlns="http://www.w3.org/2000/svg" id="svg20" width="177.8" height="155.775" clip-rule="evenodd" fill-rule="evenodd" image-rendering="optimizeQuality" shape-rendering="geometricPrecision" text-rendering="geometricPrecision" style="">
  <defs id="defs4">
    <style id="style2">
    </style>
  </defs>
  <path d="M97.362 12.178l-.227-.263c-8.2-9.606-5.009-5.891-7.309-8.564l-.892-1.042c-2.619 3.136-5.414 6.343-8.275 9.615-5.107 5.874-10.883 12.515-16.655 19.582l-.033.042C47.145 52.159 30.389 76.383 30.389 95.771c0 15.736 6.097 30.408 17.171 41.317 11.092 11.095 25.77 17.196 41.339 17.196 15.739 0 30.413-6.095 41.32-17.172 10.93-10.93 17.192-25.993 17.192-41.338-.003-25.668-37.355-69.017-58.477-93.465z" id="path860" fill="none" stroke="#000" stroke-width="2.983" class="ahhTudkw_0"></path>
<style data-made-with="vivus-instant">.ahhTudkw_0{stroke-dasharray:434 436;stroke-dashoffset:435;animation:ahhTudkw_draw_0 2500ms linear 0ms infinite,ahhTudkw_fade 2500ms linear 0ms infinite;}@keyframes ahhTudkw_draw{100%{stroke-dashoffset:0;}}@keyframes ahhTudkw_fade{0%{stroke-opacity:1;}92%{stroke-opacity:1;}100%{stroke-opacity:0;}}@keyframes ahhTudkw_draw_0{12%{stroke-dashoffset: 435}65.33333333333334%{ stroke-dashoffset: 0;}100%{ stroke-dashoffset: 0;}}</style></svg>
